<?xml version="1.0" standalone="no"?>
<!DOCTYPE svg PUBLIC "-//W3C//DTD SVG 20010904//EN"
 "http://www.w3.org/TR/2001/REC-SVG-20010904/DTD/svg10.dtd">
<svg version="1.0" xmlns="http://www.w3.org/2000/svg"
 width="3000.000000pt" height="3000.000000pt" viewBox="0 0 3000.000000 3000.000000"
 preserveAspectRatio="xMidYMid meet">
<metadata>
Created by potrace 1.14, written by Peter Selinger 2001-2017
</metadata>
<g transform="translate(0.000000,3000.000000) scale(0.100000,-0.100000)"
fill="#000000" stroke="none">
<path d="M25606 28271 c-6 -8 -73 -26 -88 -23 -5 1 -8 -1 -8 -5 0 -7 -18 -11
-72 -16 -10 -1 -18 -4 -18 -7 0 -3 -12 -7 -27 -8 -15 -1 -29 -6 -32 -10 -3 -4
-13 -7 -21 -7 -8 1 -24 -2 -36 -6 -11 -4 -38 -10 -60 -14 -46 -8 -69 -13 -69
-15 0 -1 -10 -3 -22 -4 -13 -2 -23 2 -23 8 0 7 -3 7 -8 1 -4 -5 -18 -11 -32
-12 -135 -12 -194 -20 -315 -39 -16 -3 -45 -6 -62 -7 -18 -1 -33 -5 -33 -10 0
-4 -8 -7 -17 -6 -10 2 -31 -1 -48 -6 -16 -4 -38 -9 -47 -10 -10 -2 -19 -3 -20
-5 -4 -2 -37 -8 -77 -13 -18 -2 -36 -8 -40 -13 -3 -5 -17 -10 -31 -11 -36 -2
-75 -12 -107 -25 -16 -6 -31 -11 -35 -10 -3 1 -31 -7 -61 -17 -31 -11 -58 -17
-61 -14 -3 4 -6 1 -6 -5 0 -6 -7 -9 -15 -6 -8 4 -15 2 -15 -3 0 -5 -6 -10 -12
-11 -21 -1 -51 -9 -83 -23 -32 -13 -45 -17 -72 -22 -9 -2 -19 -9 -21 -15 -2
-6 -10 -8 -18 -5 -8 3 -14 0 -14 -7 0 -6 -4 -8 -10 -5 -5 3 -21 -2 -35 -11
-14 -9 -25 -13 -25 -10 0 4 -10 1 -22 -6 -13 -7 -25 -13 -28 -13 -3 0 -15 -6
-27 -13 -13 -7 -23 -10 -23 -7 0 4 -7 -1 -16 -9 -8 -9 -20 -14 -25 -11 -5 4
-9 1 -9 -4 0 -6 -3 -10 -7 -9 -13 3 -53 -13 -53 -22 0 -4 -6 -8 -12 -7 -19 1
-78 -26 -78 -36 0 -4 -4 -6 -9 -2 -5 3 -16 -1 -24 -9 -8 -8 -27 -18 -42 -22
-14 -4 -29 -13 -32 -20 -3 -8 -8 -12 -12 -10 -3 2 -40 -15 -81 -39 -41 -24
-99 -56 -127 -71 -29 -16 -53 -31 -53 -35 0 -7 -40 -22 -53 -20 -5 1 -6 -3 -3
-8 3 -5 -8 -14 -24 -21 -17 -7 -30 -16 -30 -21 0 -5 -6 -9 -12 -9 -7 0 -26
-11 -42 -25 -16 -13 -32 -23 -35 -20 -4 2 -14 -5 -21 -16 -8 -10 -18 -19 -22
-19 -4 0 -19 -10 -34 -22 -14 -13 -26 -21 -27 -18 -1 2 -13 -5 -27 -17 -14
-12 -36 -31 -50 -43 -13 -11 -39 -30 -57 -41 -18 -11 -33 -25 -33 -30 0 -5
-12 -14 -26 -19 -15 -6 -22 -14 -18 -22 4 -6 3 -8 -3 -5 -5 3 -26 -8 -45 -26
-19 -18 -64 -57 -98 -87 -86 -75 -366 -350 -356 -350 4 0 -14 -20 -41 -45 -26
-25 -44 -45 -41 -45 4 0 -18 -26 -47 -57 -30 -31 -53 -58 -51 -60 2 -3 -6 -14
-18 -27 -38 -40 -76 -86 -76 -92 0 -4 -11 -17 -25 -30 -14 -13 -25 -26 -25
-29 1 -20 -2 -24 -19 -30 -13 -4 -18 -12 -14 -22 4 -11 2 -14 -5 -9 -7 4 -12
1 -12 -8 0 -9 -5 -16 -11 -16 -5 0 -8 -4 -5 -9 3 -4 -3 -16 -14 -26 -11 -10
-20 -24 -20 -32 0 -7 -3 -13 -7 -13 -5 0 -21 -21 -38 -48 -16 -26 -35 -53 -41
-59 -7 -7 -18 -26 -26 -43 -7 -16 -17 -30 -21 -30 -5 0 -5 -4 -2 -10 3 -5 2
-10 -2 -10 -5 0 -17 -13 -26 -30 -10 -16 -15 -30 -11 -30 4 0 -3 -9 -16 -20
-13 -11 -19 -20 -15 -20 4 0 2 -8 -6 -17 -8 -10 -21 -30 -29 -45 -7 -16 -17
-28 -22 -28 -5 0 -6 -5 -2 -12 4 -6 -1 -17 -11 -25 -11 -7 -15 -13 -11 -13 8
0 -21 -55 -44 -84 -8 -10 -14 -20 -13 -22 4 -6 -31 -79 -39 -82 -5 -2 -8 -12
-8 -22 0 -10 -5 -22 -10 -25 -6 -4 -8 -11 -5 -16 4 -5 1 -9 -6 -9 -7 0 -9 -3
-6 -7 4 -3 0 -14 -8 -23 -9 -10 -17 -27 -20 -39 -2 -11 -11 -33 -19 -48 -18
-35 -30 -66 -28 -75 1 -5 -2 -8 -6 -8 -4 0 -14 -20 -21 -45 -7 -25 -17 -45
-21 -45 -5 0 -7 -12 -4 -26 3 -14 1 -23 -5 -20 -7 5 -26 -40 -22 -52 1 -1 -6
-16 -14 -32 -8 -16 -16 -33 -16 -37 -1 -5 -6 -19 -11 -33 -6 -14 -11 -35 -11
-47 -1 -13 -5 -23 -9 -23 -5 0 -8 -8 -8 -18 0 -10 -3 -22 -7 -26 -8 -8 -14
-34 -14 -58 0 -10 -4 -18 -10 -18 -5 0 -9 -10 -9 -23 0 -13 -3 -27 -7 -31 -4
-3 -8 -14 -10 -24 -9 -55 -16 -82 -22 -82 -5 0 -9 -20 -11 -72 -1 -10 -5 -18
-10 -18 -5 0 -7 -11 -4 -24 2 -14 0 -28 -6 -31 -5 -3 -10 -16 -10 -29 0 -12
-3 -26 -7 -30 -4 -3 -8 -21 -9 -39 0 -17 -2 -32 -4 -32 -1 0 -4 -11 -5 -25 -1
-14 -5 -33 -9 -42 -5 -10 -6 -23 -4 -30 3 -7 -1 -26 -7 -43 -7 -16 -11 -40 -9
-52 2 -13 0 -23 -4 -23 -4 0 -8 -15 -9 -32 -1 -36 -11 -115 -19 -163 -7 -42
-13 -124 -18 -237 -2 -53 -6 -100 -9 -105 -8 -15 -4 -433 4 -439 5 -3 5 -13
-1 -23 -5 -10 -7 -21 -3 -24 7 -8 14 -435 13 -872 -4 -1523 -4 -1565 -22
-1565 -9 0 -20 5 -23 10 -4 6 -10 8 -15 5 -4 -3 -11 2 -14 11 -3 8 -10 13 -15
10 -5 -4 -11 -3 -13 1 -1 5 -47 30 -100 58 -54 27 -98 53 -98 57 0 4 -6 5 -13
2 -8 -3 -20 2 -27 10 -7 9 -16 13 -21 10 -5 -3 -9 -2 -9 3 0 4 -29 21 -65 38
-36 16 -65 33 -65 38 0 4 -4 6 -9 2 -5 -3 -16 1 -24 9 -8 8 -17 12 -20 9 -3
-3 -13 2 -22 11 -9 9 -21 14 -26 11 -5 -4 -9 -1 -9 4 0 6 -7 11 -15 11 -8 0
-15 5 -15 10 0 6 -3 9 -7 8 -13 -4 -93 35 -93 45 0 4 -4 6 -8 3 -4 -2 -43 13
-87 35 -44 21 -85 39 -92 39 -7 0 -13 5 -13 11 0 5 -5 7 -10 4 -6 -3 -13 1
-16 9 -3 9 -10 13 -15 10 -6 -3 -16 0 -24 6 -8 7 -15 9 -15 4 0 -5 -4 -4 -8 3
-4 6 -16 13 -27 15 -11 1 -22 5 -25 9 -8 9 -73 37 -102 44 -16 4 -25 11 -22
16 3 5 2 9 -3 8 -24 -4 -53 2 -48 11 3 6 -1 10 -10 10 -8 0 -44 13 -80 29 -35
16 -66 27 -69 23 -3 -3 -6 0 -6 6 0 7 -3 11 -7 11 -5 -1 -24 4 -43 12 -19 7
-38 12 -42 11 -5 -1 -8 3 -8 9 0 6 -7 9 -15 5 -8 -3 -15 -1 -15 4 0 6 -7 10
-15 10 -8 0 -23 4 -33 9 -9 5 -30 14 -47 21 -16 7 -42 19 -57 27 -15 7 -31 14
-35 14 -22 -1 -83 21 -83 29 0 5 -6 7 -14 4 -8 -3 -17 -1 -21 5 -3 6 -14 11
-23 11 -9 0 -30 7 -46 15 -15 8 -35 15 -42 15 -8 0 -14 6 -14 13 0 9 -2 9 -9
-1 -6 -10 -10 -10 -21 2 -7 9 -16 13 -21 10 -5 -3 -9 -1 -9 3 0 5 -9 10 -20
11 -11 1 -29 3 -40 4 -11 1 -20 5 -20 9 0 4 -15 11 -32 14 -18 4 -37 10 -43
13 -5 4 -19 8 -30 9 -10 2 -22 7 -25 11 -3 4 -9 7 -15 7 -15 1 -98 26 -110 33
-5 4 -21 8 -34 10 -14 2 -33 8 -43 13 -10 5 -23 7 -28 4 -6 -3 -10 -1 -10 4 0
6 -3 10 -7 9 -11 -2 -66 13 -78 21 -5 4 -17 7 -25 6 -8 -1 -24 3 -35 9 -11 5
-24 11 -30 12 -40 8 -64 14 -94 23 -19 6 -38 8 -42 5 -5 -3 -9 -1 -9 4 0 9
-84 28 -102 24 -5 -1 -8 2 -8 6 0 5 -6 9 -12 10 -7 1 -27 4 -45 6 -17 2 -36 6
-41 10 -5 3 -24 8 -43 11 -44 9 -50 10 -72 20 -10 4 -21 5 -24 1 -3 -3 -12 -1
-19 5 -7 6 -26 13 -41 14 -75 10 -166 29 -183 40 -9 6 -11 4 -5 -4 6 -10 3
-11 -14 -2 -11 6 -35 13 -53 15 -18 2 -40 6 -48 9 -21 7 -170 31 -197 31 -13
0 -23 4 -23 8 0 4 -10 7 -22 7 -31 -2 -163 16 -163 21 0 1 -18 3 -40 5 -22 1
-40 4 -40 5 0 1 -11 3 -25 4 -14 2 -52 6 -85 11 -33 4 -71 9 -85 11 -109 11
-162 16 -210 17 l-54 2 -1 -250 c0 -137 -4 -256 -8 -263 -5 -7 -4 -19 3 -27 8
-9 8 -15 0 -20 -6 -4 -7 -12 -3 -18 10 -15 10 -38 -1 -55 -4 -7 -3 -19 4 -27
7 -9 8 -15 0 -20 -7 -4 -7 -12 0 -26 8 -13 7 -25 0 -40 -8 -15 -8 -24 0 -34 8
-9 8 -15 0 -20 -6 -4 -7 -12 -3 -18 10 -15 10 -38 -1 -55 -4 -7 -3 -19 4 -27
7 -9 8 -15 0 -20 -7 -4 -7 -12 0 -26 8 -13 7 -25 0 -40 -8 -15 -8 -24 0 -34 8
-9 8 -15 0 -20 -6 -4 -7 -12 -3 -18 10 -15 10 -38 -1 -55 -4 -7 -3 -19 4 -27
7 -9 8 -15 0 -20 -7 -4 -7 -12 0 -26 8 -13 7 -25 0 -40 -8 -15 -8 -24 0 -34 8
-9 8 -15 0 -20 -8 -5 -8 -10 0 -20 8 -10 8 -15 0 -20 -8 -5 -8 -10 0 -20 8
-10 8 -15 0 -20 -6 -4 -7 -12 -3 -18 10 -15 10 -38 -1 -55 -4 -7 -3 -19 4 -27
7 -9 8 -15 0 -20 -7 -4 -7 -12 0 -26 8 -13 7 -25 0 -40 -8 -15 -8 -24 0 -34 8
-9 8 -15 0 -20 -8 -5 -8 -10 0 -20 8 -10 8 -15 0 -20 -8 -5 -8 -10 0 -20 8
-10 8 -15 0 -20 -6 -4 -7 -12 -3 -18 10 -15 10 -38 -1 -55 -4 -7 -3 -19 4 -27
7 -9 8 -15 0 -20 -7 -4 -7 -12 0 -26 8 -13 7 -25 0 -40 -8 -15 -8 -24 0 -34 8
-9 8 -15 0 -20 -8 -5 -8 -10 0 -20 8 -10 8 -15 0 -20 -8 -5 -8 -10 0 -20 8
-10 8 -15 0 -20 -6 -4 -7 -12 -3 -18 10 -15 10 -38 -1 -55 -4 -7 -3 -19 4 -27
7 -9 8 -15 0 -20 -7 -4 -7 -12 0 -26 8 -13 7 -25 0 -40 -8 -15 -8 -24 0 -34 8
-9 8 -15 0 -20 -8 -5 -8 -10 0 -20 8 -10 8 -15 0 -20 -8 -5 -8 -10 0 -20 8
-10 8 -15 0 -20 -6 -4 -7 -12 -3 -18 10 -15 10 -38 -1 -55 -4 -7 -3 -19 4 -27
7 -9 8 -15 0 -20 -7 -4 -7 -12 0 -26 8 -13 7 -25 0 -40 -8 -15 -8 -24 0 -34 8
-9 8 -15 0 -20 -8 -5 -8 -10 0 -20 8 -10 8 -15 0 -20 -8 -5 -8 -10 0 -20 8
-10 8 -15 0 -20 -6 -4 -7 -12 -3 -18 10 -15 10 -38 -1 -55 -4 -7 -3 -19 4 -27
7 -9 8 -15 0 -20 -7 -4 -7 -12 0 -26 8 -13 7 -25 0 -40 -8 -15 -8 -24 0 -34 8
-9 8 -15 0 -20 -6 -3 -7 -12 -3 -18 5 -7 9 -124 9 -262 4 -731 8 -1012 15
-1031 4 -11 3 -27 -1 -34 -5 -8 -4 -22 1 -32 6 -12 6 -18 0 -18 -5 0 -7 -12
-5 -27 3 -16 5 -35 5 -43 -5 -117 5 -198 29 -246 14 -27 28 -50 33 -52 4 -2 7
-9 7 -16 0 -6 9 -18 20 -26 11 -8 20 -20 20 -28 0 -7 4 -11 9 -7 5 3 12 -4 16
-15 3 -11 13 -20 21 -20 8 0 12 -4 9 -10 -3 -5 -2 -10 2 -10 5 0 26 -16 48
-35 22 -19 48 -37 58 -41 9 -3 17 -10 17 -15 0 -5 9 -9 21 -9 11 0 17 -4 14
-10 -3 -5 0 -10 8 -10 14 0 95 -31 129 -50 11 -6 19 -6 24 1 5 8 8 8 13 0 4
-6 17 -12 29 -14 12 -2 25 -6 28 -10 4 -4 18 -7 31 -7 13 0 23 -4 23 -9 0 -5
10 -7 22 -3 13 3 19 1 15 -6 -4 -6 0 -9 10 -7 10 1 23 -1 28 -5 12 -9 67 -24
78 -22 4 1 7 -2 7 -6 0 -5 6 -9 13 -10 18 -1 38 -7 70 -20 16 -7 34 -12 42
-12 8 0 17 -5 20 -11 4 -6 13 -8 21 -5 8 3 14 1 14 -4 0 -4 14 -11 30 -15 17
-4 30 -10 30 -14 0 -4 8 -7 18 -8 10 -1 48 -15 85 -32 37 -17 74 -31 82 -31 8
0 15 -5 15 -11 0 -6 7 -8 16 -5 8 3 12 2 9 -4 -3 -6 1 -10 9 -10 9 0 43 -13
76 -29 33 -16 60 -27 60 -24 0 2 7 -3 16 -12 9 -9 23 -14 30 -11 8 3 14 1 14
-4 0 -8 122 -70 137 -69 3 0 9 -3 12 -8 5 -8 58 -38 118 -67 13 -6 23 -15 23
-19 0 -5 4 -6 9 -3 5 3 14 -1 21 -9 7 -8 19 -15 26 -15 8 0 14 -4 14 -10 0 -5
9 -10 20 -10 11 0 20 -4 20 -10 0 -5 7 -10 15 -10 8 0 15 -4 15 -10 0 -5 6
-10 13 -10 7 0 23 -9 35 -20 12 -11 28 -20 36 -20 8 0 16 -4 18 -8 4 -11 115
-82 128 -82 6 0 10 -4 10 -8 0 -4 18 -19 40 -32 22 -14 40 -29 40 -33 0 -5 5
-5 10 -2 6 3 10 -1 10 -10 0 -9 4 -14 9 -11 5 3 23 -6 39 -22 17 -15 36 -28
44 -30 7 -2 15 -8 16 -13 2 -5 10 -9 18 -9 9 0 12 -4 9 -10 -3 -5 1 -10 9 -10
9 0 16 -7 16 -15 0 -8 6 -12 13 -9 8 3 22 -7 33 -21 10 -14 23 -25 29 -25 5 0
23 -14 39 -30 16 -16 37 -32 47 -35 10 -3 21 -15 24 -26 4 -10 13 -19 21 -19
8 0 14 -4 14 -10 0 -5 5 -10 11 -10 6 0 28 -18 49 -40 21 -22 40 -40 44 -40 5
0 141 -129 219 -207 50 -51 172 -181 207 -222 78 -92 87 -101 94 -93 4 4 6 2
4 -4 -3 -10 40 -69 80 -110 6 -7 12 -17 12 -23 0 -6 5 -11 10 -11 6 0 15 -12
20 -26 6 -14 14 -22 20 -19 5 3 10 -1 10 -9 0 -9 5 -16 12 -16 6 0 9 -3 5 -6
-3 -3 4 -16 15 -29 11 -13 19 -26 19 -29 -1 -4 9 -17 21 -31 34 -36 48 -53 48
-60 0 -3 9 -15 20 -27 10 -12 17 -24 15 -28 -3 -5 2 -10 10 -14 8 -3 15 -12
15 -21 0 -8 5 -15 10 -15 6 0 10 -7 10 -15 0 -8 5 -15 10 -15 6 0 10 -5 10
-11 0 -6 6 -17 13 -24 24 -27 33 -40 35 -48 3 -17 37 -67 45 -67 4 0 6 -4 2
-9 -3 -5 3 -17 12 -27 10 -10 18 -20 18 -23 1 -6 30 -61 52 -96 6 -11 19 -37
29 -57 9 -21 20 -38 25 -38 5 0 9 -9 9 -20 0 -11 4 -20 9 -20 5 0 12 -11 15
-25 4 -14 11 -25 16 -25 5 0 7 -7 4 -15 -4 -8 -1 -15 5 -15 6 0 11 -9 11 -20
0 -11 4 -20 9 -20 9 0 35 -58 32 -72 0 -5 4 -8 10 -8 6 0 9 -7 5 -15 -3 -8 -1
-15 3 -15 9 0 35 -59 32 -72 0 -5 4 -8 10 -8 6 0 9 -7 5 -15 -3 -8 -2 -15 2
-15 8 0 39 -70 42 -98 1 -4 10 -21 21 -38 10 -17 16 -34 12 -38 -4 -4 -3 -10
2 -14 11 -8 36 -69 38 -89 0 -7 4 -13 9 -13 4 0 8 -11 8 -25 0 -14 4 -25 8
-25 4 0 9 -8 10 -17 4 -38 8 -51 26 -78 10 -15 13 -24 6 -20 -9 5 -9 1 1 -16
7 -13 14 -31 15 -39 1 -8 11 -44 22 -79 12 -36 19 -68 16 -73 -3 -4 0 -8 5 -8
6 0 10 -3 9 -7 -1 -5 4 -28 12 -53 7 -25 14 -52 16 -60 3 -15 19 -84 30 -130
4 -14 7 -33 8 -42 1 -10 5 -21 9 -24 4 -4 7 -18 7 -31 0 -14 5 -33 10 -43 7
-13 7 -21 -1 -26 -7 -4 -8 -9 -1 -13 9 -6 21 -61 28 -126 1 -16 3 -30 4 -30 1
0 4 -13 5 -30 2 -16 7 -50 12 -75 5 -25 8 -55 7 -67 -1 -13 2 -23 5 -23 4 0 7
-21 8 -47 3 -76 10 -130 17 -142 4 -6 3 -11 -3 -11 -7 0 -7 -8 -2 -22 8 -22
12 -73 14 -190 1 -32 6 -58 11 -58 4 0 3 -6 -3 -13 -6 -8 -8 -16 -5 -19 8 -9
11 -278 3 -278 -4 0 -4 -13 1 -29 4 -16 6 -32 2 -35 -3 -4 -7 -52 -8 -109 -2
-56 -6 -120 -9 -142 -3 -22 -8 -67 -10 -100 -3 -33 -7 -80 -10 -105 -3 -25 -7
-67 -9 -93 -3 -27 -10 -54 -16 -62 -7 -9 -8 -15 -1 -19 7 -5 7 -15 1 -32 -5
-13 -9 -28 -9 -32 1 -4 0 -9 -1 -12 -1 -3 -4 -18 -6 -35 -2 -16 -6 -41 -8 -55
-12 -72 -17 -96 -21 -110 -2 -8 -7 -31 -11 -50 -8 -44 -12 -64 -14 -67 -3 -4
-6 -13 -15 -58 -4 -22 -10 -49 -12 -60 -3 -11 -6 -28 -6 -37 -1 -10 -5 -18
-10 -18 -4 0 -7 -6 -6 -12 2 -7 -5 -37 -14 -67 -9 -29 -14 -57 -11 -62 3 -5 0
-9 -5 -9 -6 0 -14 -18 -17 -40 -4 -22 -10 -43 -15 -46 -4 -2 -6 -11 -2 -19 3
-8 0 -15 -5 -15 -6 0 -10 -8 -10 -17 0 -10 -5 -31 -12 -48 -13 -29 -17 -43
-23 -67 -1 -7 -5 -17 -8 -23 -8 -14 -23 -68 -21 -77 1 -5 -3 -8 -8 -8 -5 0 -9
-3 -8 -7 1 -8 -4 -22 -33 -92 -10 -24 -17 -47 -14 -51 2 -4 -3 -16 -13 -26 -9
-11 -18 -26 -20 -34 -6 -31 -25 -70 -34 -70 -5 0 -7 -4 -4 -9 3 -5 -14 -52
-39 -105 -25 -53 -45 -99 -44 -102 0 -4 -3 -10 -8 -13 -9 -7 -45 -75 -46 -88
0 -4 -7 -14 -14 -21 -7 -8 -11 -17 -8 -21 2 -5 -4 -16 -15 -26 -11 -10 -20
-25 -20 -34 0 -9 -9 -27 -20 -41 -11 -14 -20 -30 -20 -36 0 -6 -7 -17 -15 -24
-9 -7 -13 -15 -11 -17 3 -3 -4 -14 -15 -26 -10 -11 -19 -27 -19 -34 0 -7 -5
-13 -11 -13 -5 0 -7 -4 -4 -10 3 -5 1 -10 -4 -10 -6 0 -11 -7 -11 -15 0 -8 -5
-15 -11 -15 -5 0 -7 -4 -4 -10 3 -5 -1 -10 -10 -10 -9 0 -13 -5 -10 -10 4 -6
-7 -28 -24 -49 -17 -21 -31 -44 -31 -50 0 -6 -5 -11 -12 -11 -6 0 -9 -3 -5 -6
6 -6 -1 -17 -35 -54 -9 -10 -14 -20 -12 -23 2 -2 -5 -12 -16 -22 -11 -10 -20
-24 -20 -32 0 -7 -5 -13 -12 -13 -6 0 -9 -3 -5 -6 3 -3 -5 -16 -19 -29 -13
-12 -24 -26 -24 -31 0 -5 -11 -21 -25 -36 -14 -15 -25 -30 -25 -34 0 -4 -8
-14 -18 -23 -9 -9 -23 -28 -31 -43 -8 -15 -18 -25 -23 -22 -4 3 -8 0 -8 -5 0
-6 -16 -29 -36 -51 -20 -22 -34 -40 -31 -40 3 0 -7 -13 -21 -28 -50 -53 -111
-122 -107 -122 2 0 -11 -15 -28 -32 -18 -18 -35 -31 -39 -30 -5 1 -8 -3 -8 -9
0 -6 -18 -29 -40 -51 -22 -23 -40 -45 -40 -50 0 -5 -3 -7 -7 -5 -5 3 -14 -1
-21 -9 -7 -8 -10 -14 -8 -14 3 0 -15 -19 -41 -42 -111 -103 -142 -136 -135
-143 4 -5 2 -5 -5 -1 -8 4 -32 -13 -63 -44 -27 -27 -52 -50 -56 -50 -5 0 -39
-29 -95 -82 -11 -10 -19 -15 -19 -12 0 4 -11 -5 -24 -19 -13 -14 -26 -23 -29
-20 -3 3 -12 -4 -19 -16 -7 -12 -16 -21 -20 -21 -5 0 -22 -12 -38 -27 -16 -14
-41 -33 -54 -42 -53 -36 -82 -56 -94 -68 -7 -7 -18 -13 -23 -13 -6 0 -8 -4 -5
-8 3 -5 0 -9 -7 -9 -7 0 -59 -32 -116 -72 -57 -39 -108 -73 -114 -74 -6 -1
-20 -10 -31 -19 -11 -10 -26 -18 -33 -18 -7 0 -13 -5 -13 -11 0 -5 -5 -7 -10
-4 -6 3 -13 -1 -16 -9 -3 -9 -10 -13 -15 -10 -5 3 -9 0 -9 -6 0 -6 -4 -8 -10
-5 -5 3 -10 2 -10 -4 0 -6 -11 -13 -25 -17 -14 -3 -25 -10 -25 -14 0 -4 -10
-10 -22 -14 -33 -8 -32 -7 -45 -25 -7 -9 -13 -13 -13 -8 0 4 -17 -3 -37 -16
-21 -13 -53 -30 -70 -38 -18 -8 -33 -18 -33 -22 0 -5 -4 -6 -9 -2 -5 3 -17 -2
-25 -11 -9 -8 -16 -13 -16 -10 0 3 -30 -10 -67 -28 -38 -19 -70 -33 -73 -33
-3 1 -16 -6 -30 -16 -13 -9 -32 -17 -42 -17 -10 0 -18 -4 -18 -9 0 -5 -13 -12
-30 -16 -16 -4 -30 -10 -30 -15 0 -5 -9 -7 -20 -5 -11 2 -20 -1 -20 -6 0 -6
-4 -7 -10 -4 -5 3 -10 1 -10 -4 0 -6 -9 -11 -20 -11 -11 0 -20 -4 -20 -10 0
-5 -7 -7 -15 -4 -8 4 -15 2 -15 -3 0 -5 -7 -10 -15 -11 -8 -1 -22 -3 -30 -4
-8 -1 -15 -5 -15 -8 0 -7 -58 -24 -72 -21 -5 0 -8 -4 -8 -9 0 -6 -8 -10 -18
-10 -10 0 -22 -3 -26 -7 -6 -7 -29 -13 -53 -15 -7 -1 -13 -5 -13 -10 0 -4 -3
-7 -8 -6 -4 1 -27 -5 -52 -12 -25 -7 -48 -13 -52 -12 -5 1 -8 -3 -8 -9 0 -6
-9 -9 -20 -6 -11 3 -20 1 -20 -3 0 -5 -19 -11 -42 -15 -24 -4 -47 -10 -53 -13
-12 -8 -33 -13 -60 -15 -11 -1 -24 -8 -28 -15 -5 -7 -13 -10 -18 -6 -5 3 -16
0 -24 -6 -8 -7 -15 -9 -15 -4 0 5 -4 5 -8 -1 -10 -14 -71 -45 -88 -45 -8 0
-14 -4 -14 -8 0 -5 -16 -16 -35 -25 -19 -9 -35 -22 -35 -27 0 -6 -4 -8 -10 -5
-5 3 -10 1 -10 -5 0 -6 -4 -8 -10 -5 -5 3 -10 -2 -10 -11 0 -10 -3 -15 -6 -11
-4 3 -23 -9 -43 -28 -20 -19 -39 -35 -43 -35 -5 0 -8 -5 -8 -10 0 -6 -9 -20
-20 -32 -11 -12 -26 -34 -32 -50 -7 -15 -15 -28 -18 -28 -3 0 -5 -69 -5 -153
0 -83 -3 -164 -7 -179 -3 -15 -2 -30 3 -34 7 -4 6 -10 0 -18 -6 -7 -6 -17 -1
-26 5 -8 6 -19 3 -24 -7 -11 -12 -353 -16 -1111 -2 -253 -6 -466 -10 -472 -5
-7 -3 -22 3 -33 8 -14 8 -26 0 -41 -8 -15 -8 -24 0 -34 8 -9 8 -15 0 -20 -6
-4 -7 -12 -3 -18 10 -15 10 -38 -1 -55 -4 -7 -3 -19 4 -27 7 -9 8 -15 0 -20
-7 -4 -7 -12 0 -26 6 -11 8 -24 5 -30 -10 -16 -13 -59 -5 -64 4 -3 4 -20 0
-39 -4 -19 -4 -39 0 -46 4 -7 4 -27 0 -45 -4 -18 -3 -39 1 -48 6 -10 5 -18 -1
-22 -8 -5 -8 -11 0 -20 8 -9 8 -15 0 -20 -6 -4 -7 -13 -2 -23 10 -20 10 -33
-2 -50 -4 -7 -3 -19 4 -27 7 -9 8 -15 0 -20 -7 -4 -7 -12 0 -26 8 -13 7 -25 0
-40 -8 -15 -8 -24 0 -34 8 -9 8 -15 0 -20 -6 -4 -7 -12 -3 -18 10 -15 10 -38
-1 -55 -4 -7 -3 -19 4 -27 7 -9 8 -15 0 -20 -7 -4 -7 -12 0 -26 8 -13 7 -25 0
-40 -8 -15 -8 -24 0 -34 8 -9 8 -15 0 -20 -6 -4 -7 -12 -3 -18 10 -15 10 -38
-1 -55 -4 -7 -3 -19 4 -27 7 -9 8 -15 0 -20 -7 -4 -7 -12 0 -26 8 -13 7 -25 0
-40 -8 -15 -8 -24 0 -34 8 -9 8 -15 0 -20 -6 -4 -7 -12 -3 -18 10 -15 10 -38
-1 -55 -4 -7 -3 -19 4 -27 8 -9 8 -15 0 -20 -6 -3 -7 -12 -3 -18 5 -7 9 -259
10 -562 1 -640 0 -580 16 -568 11 10 62 20 137 28 19 2 44 5 55 8 11 2 47 8
80 12 32 4 68 9 80 12 11 2 36 6 55 8 19 2 51 7 70 10 19 3 55 7 80 10 25 3
56 9 70 12 14 3 36 7 50 9 30 3 99 12 122 17 10 2 21 6 24 10 4 4 13 2 21 -4
7 -6 13 -7 13 -2 0 5 6 10 13 10 6 1 32 4 57 8 25 4 54 9 65 10 24 3 74 14 95
22 28 10 50 10 50 -1 0 -7 3 -7 8 1 7 11 15 14 92 28 19 4 42 9 50 12 19 7 39
12 70 15 14 2 27 6 30 10 3 4 20 8 38 10 18 1 32 5 32 8 0 3 8 6 18 7 18 1 32
4 102 23 25 7 50 13 55 14 6 1 15 4 20 7 6 3 17 5 25 4 8 0 17 2 20 6 3 4 21
10 40 12 19 3 36 6 38 7 1 2 7 4 12 5 6 1 12 4 15 5 3 1 8 3 13 4 4 2 27 8 52
16 25 7 49 13 53 12 4 -1 21 5 37 13 17 9 30 13 30 9 0 -3 11 1 25 10 14 9 25
12 25 6 0 -7 6 -7 18 0 26 15 134 50 154 50 10 0 18 5 18 12 0 6 3 9 6 6 5 -5
63 10 114 29 8 4 18 7 23 8 4 2 8 3 10 5 1 1 9 3 17 5 8 2 29 9 45 16 17 7 34
11 39 10 4 -1 14 4 22 10 8 6 14 8 14 4 0 -4 6 -3 13 2 10 9 81 36 97 38 3 0
11 4 18 8 6 5 16 6 21 3 5 -3 12 1 15 10 3 9 13 14 21 10 8 -3 17 -1 20 5 4 5
11 7 16 4 5 -4 9 -1 9 6 0 7 3 10 6 6 4 -3 19 0 34 8 15 8 30 11 34 8 3 -4 6
-1 6 6 0 7 4 10 9 6 5 -3 12 -1 16 5 3 5 15 10 26 10 10 0 19 5 19 11 0 5 4 8
8 5 4 -2 21 1 37 9 47 20 69 28 78 27 4 -1 7 3 7 8 0 5 3 9 8 8 8 -1 28 6 87
32 22 10 50 21 63 25 12 3 22 11 22 16 0 5 3 8 8 8 4 -1 10 0 15 1 4 1 10 3
15 4 31 7 82 32 82 40 0 5 3 7 6 3 4 -3 21 1 38 10 17 10 33 18 36 18 3 0 15
6 26 13 12 6 24 8 28 5 3 -3 6 -1 6 5 0 10 67 38 83 34 4 -1 7 5 7 14 0 8 4
13 9 10 4 -3 37 10 73 29 36 18 69 31 72 28 3 -4 6 -1 6 6 0 7 5 9 10 6 6 -3
10 -3 10 2 0 4 25 19 55 33 30 14 55 29 55 33 0 5 4 6 9 2 5 -3 16 1 24 9 8 8
17 12 21 9 3 -4 6 -1 6 6 0 7 4 10 9 6 5 -3 15 1 23 8 16 15 70 41 81 39 4 -1
7 2 7 6 0 5 32 24 70 43 39 18 70 38 70 42 0 5 7 6 16 3 8 -3 13 -2 10 2 -2 4
33 28 80 52 46 25 84 48 84 53 0 4 7 7 15 7 8 0 15 4 15 10 0 5 3 9 8 8 7 -3
103 51 112 63 3 3 20 14 39 24 19 9 39 21 45 26 25 21 88 59 96 59 6 0 10 5
10 10 0 6 6 10 13 10 7 0 28 13 47 30 19 16 41 29 48 30 6 0 12 5 12 10 0 6 6
10 13 10 13 0 44 21 77 52 10 9 21 14 24 11 3 -3 8 2 12 11 3 9 12 16 18 16 7
0 21 8 32 18 10 10 43 33 72 52 28 18 52 38 52 43 0 6 3 7 7 4 3 -4 15 4 27
16 12 12 26 24 31 26 12 3 60 39 86 64 11 9 19 14 19 10 0 -3 9 4 19 16 11 12
22 22 25 21 7 0 24 12 61 48 14 13 25 19 25 15 0 -4 5 -1 10 7 5 8 13 15 17
15 4 0 22 14 40 30 36 34 45 42 90 75 18 13 30 27 27 32 -3 5 -1 7 5 6 11 -3
64 38 131 102 20 19 39 35 42 35 3 0 16 10 29 22 13 13 42 39 64 59 22 20 67
62 101 94 33 31 72 65 87 75 15 9 24 21 21 26 -3 5 -1 9 5 9 14 0 341 326 341
340 0 6 3 9 8 7 4 -2 19 9 34 24 15 16 25 29 22 29 -2 0 30 34 71 76 41 42 75
78 75 80 0 4 4 8 73 83 21 22 36 42 35 43 -2 2 17 22 41 46 24 23 41 42 37 42
-3 0 12 18 34 41 22 23 37 45 34 50 -3 5 1 9 8 9 7 0 24 16 37 36 13 19 35 45
48 57 12 12 23 25 23 28 0 7 38 54 73 90 9 11 14 19 10 19 -5 0 0 5 10 11 9 5
17 15 17 21 0 6 10 19 22 29 11 11 18 19 14 19 -4 0 3 11 16 23 13 13 41 50
63 82 22 31 48 66 58 76 9 11 17 21 17 24 0 7 94 130 102 133 5 2 8 10 8 18 0
8 5 14 11 14 5 0 8 4 5 9 -3 5 1 12 10 15 9 4 14 9 11 12 -3 4 5 18 19 33 14
14 27 36 30 48 4 13 10 20 15 18 5 -3 11 6 15 20 3 14 9 23 12 21 5 -5 20 16
39 54 4 8 12 20 17 27 28 32 36 43 36 48 0 3 19 34 42 68 24 34 42 65 40 70
-1 4 3 7 8 7 6 0 10 7 10 15 0 8 5 15 10 15 6 0 10 7 10 15 0 8 4 15 9 15 5 0
13 10 17 22 3 12 12 28 18 35 30 34 36 43 29 43 -4 0 0 7 10 14 10 8 18 16 17
18 -2 5 13 42 19 48 10 9 31 44 37 63 4 9 11 17 16 17 5 0 6 5 3 10 -3 6 -2
10 4 10 6 0 13 11 17 25 3 14 10 25 14 25 9 0 20 27 19 43 0 5 6 14 14 20 9 7
33 46 54 87 21 41 41 77 46 78 4 2 5 8 1 13 -3 5 -2 9 3 9 4 0 14 15 22 33 8
17 17 34 20 37 3 3 19 32 36 65 16 33 34 63 38 66 5 3 9 10 9 15 1 15 22 59
32 65 5 4 5 12 2 18 -4 6 -3 11 2 11 9 0 50 81 44 87 -1 2 7 13 17 25 11 11
18 25 15 29 -2 4 0 10 6 14 6 4 8 11 5 16 -4 5 -1 9 4 9 6 0 11 7 11 15 0 8 5
15 12 15 6 0 8 3 5 6 -3 4 -1 16 5 28 7 11 11 24 10 29 -1 4 3 7 9 7 5 0 8 4
4 9 -3 5 1 15 8 23 7 7 14 16 15 21 1 4 8 23 16 42 9 20 14 37 13 39 -1 1 4
10 12 19 7 10 10 17 7 17 -4 0 0 7 8 16 9 8 14 20 11 25 -4 5 -1 9 5 9 7 0 10
7 6 15 -3 8 -1 15 4 15 6 0 10 9 10 20 0 11 5 20 11 20 5 0 7 5 4 10 -3 6 -2
10 4 10 6 0 8 6 5 13 -2 7 4 22 15 34 11 11 18 23 15 26 -2 2 1 17 7 33 7 16
12 32 11 37 -1 4 3 7 9 7 5 0 8 4 4 9 -3 5 -1 12 5 16 5 3 10 13 10 21 0 8 9
33 19 57 19 42 32 76 36 90 2 4 4 9 5 12 1 3 4 10 5 15 1 6 4 12 5 15 1 3 3 8
4 13 1 4 7 17 14 30 7 12 10 22 6 22 -3 0 -1 7 6 15 7 8 9 15 5 15 -4 0 -3 6
3 12 6 7 11 18 12 23 5 20 12 40 19 55 4 8 7 23 5 33 -1 11 0 16 3 13 6 -6 29
59 63 174 8 25 14 47 15 50 1 3 4 12 7 20 14 37 29 95 27 100 -1 3 3 16 10 29
7 13 15 33 16 45 2 11 18 71 35 131 16 61 33 123 36 139 2 16 8 34 12 40 3 6
5 19 4 29 -2 9 1 17 7 17 6 0 8 7 4 16 -3 8 -1 25 5 37 5 12 15 47 21 77 6 30
14 66 17 80 3 14 7 35 10 48 10 55 13 69 19 97 4 17 8 39 10 50 1 11 3 20 5
20 1 0 3 14 5 30 2 17 8 55 14 85 6 30 12 67 13 83 1 15 5 27 8 27 3 0 6 15 7
33 0 17 3 48 6 67 3 19 8 58 12 85 5 28 9 64 10 80 2 17 4 30 5 30 1 0 3 14 5
30 2 30 10 104 21 205 3 30 7 75 9 100 2 25 4 45 5 45 7 0 5 47 -2 51 -5 3 -5
11 0 17 8 12 15 86 16 189 1 32 5 58 9 58 5 0 5 5 1 11 -4 7 -6 30 -6 53 7
205 6 276 -1 276 -5 0 -5 6 1 13 7 8 11 159 12 437 0 234 2 667 2 963 1 370 5
537 12 537 8 0 8 3 0 8 -10 7 -12 587 -1 685 2 21 0 40 -5 43 -5 3 -4 12 3 20
9 11 8 14 -2 14 -11 0 -11 2 1 10 11 7 11 10 2 10 -8 0 -10 5 -5 13 12 19 12
38 1 31 -6 -4 -5 2 1 15 9 16 9 21 -1 21 -9 0 -9 3 2 10 11 7 11 10 2 10 -8 0
-10 5 -5 13 10 17 11 67 0 74 -4 2 -3 11 4 19 9 11 8 14 -2 14 -11 0 -11 2 1
10 11 7 11 10 2 10 -8 0 -10 5 -5 13 12 19 12 38 1 31 -6 -4 -5 2 1 15 9 16 9
21 -1 21 -9 0 -9 3 2 10 11 7 11 10 2 10 -8 0 -10 5 -5 13 10 17 11 67 0 74
-4 2 -3 11 4 19 9 11 8 14 -2 14 -11 0 -11 2 1 10 11 7 11 10 2 10 -8 0 -10 5
-5 13 12 19 12 38 1 31 -6 -4 -5 2 1 15 9 16 9 21 -1 21 -9 0 -9 3 2 10 11 7
11 10 2 10 -8 0 -10 5 -5 13 10 17 11 67 0 74 -4 2 -3 11 4 19 9 11 8 14 -2
14 -11 0 -11 2 1 10 11 7 11 10 2 10 -8 0 -10 5 -5 13 12 19 12 38 1 31 -6 -4
-5 2 1 15 9 16 9 21 -1 21 -9 0 -9 3 2 10 11 7 11 10 2 10 -8 0 -10 5 -5 13
10 17 11 67 0 74 -4 2 -3 11 4 19 9 11 8 14 -2 14 -11 0 -11 2 1 10 11 7 11
10 2 10 -8 0 -10 5 -5 13 12 19 12 38 1 31 -6 -4 -5 2 1 15 9 16 9 21 -1 21
-9 0 -9 3 2 10 11 7 11 10 2 10 -8 0 -10 5 -5 13 10 17 11 67 0 74 -4 2 -3 11
4 19 9 11 8 14 -2 14 -11 0 -11 2 1 10 11 7 11 10 2 10 -8 0 -10 5 -5 13 12
19 12 38 1 31 -6 -4 -5 2 1 15 9 16 9 21 -1 21 -9 0 -9 3 2 10 12 8 12 10 1
10 -9 0 -10 4 -4 13 6 6 8 21 6 32 -2 11 -3 25 -3 30 1 6 3 1368 5 3028 2
2240 0 3017 -9 3017 -6 0 -4 5 4 10 13 9 13 10 0 10 -13 0 -13 1 0 10 11 7 11
10 2 10 -8 0 -10 5 -5 13 10 17 11 67 0 74 -4 2 -3 11 4 19 9 11 8 14 -2 14
-11 0 -11 2 1 10 11 7 11 10 2 10 -8 0 -10 5 -5 13 12 19 12 38 1 31 -6 -4 -5
2 1 15 9 16 9 21 -1 21 -9 0 -9 3 2 10 11 7 11 10 2 10 -8 0 -10 5 -5 13 10
17 11 67 0 74 -4 2 -3 11 4 19 9 11 8 14 -2 14 -11 0 -11 2 1 10 11 7 11 10 2
10 -8 0 -10 5 -5 13 12 19 12 38 1 31 -6 -4 -5 2 1 15 9 16 9 21 -1 21 -9 0
-9 3 2 10 11 7 11 10 2 10 -8 0 -10 5 -5 13 10 17 11 67 0 74 -4 2 -3 11 4 19
9 11 8 14 -2 14 -11 0 -11 2 1 10 11 7 11 10 2 10 -8 0 -10 5 -5 13 12 19 12
38 1 31 -6 -4 -5 2 1 15 9 16 9 21 -1 21 -9 0 -9 3 2 10 11 7 11 10 2 10 -8 0
-10 5 -5 13 10 17 11 67 0 74 -4 2 -3 11 4 19 9 11 8 14 -2 14 -11 0 -11 2 1
10 11 7 11 10 2 10 -8 0 -10 5 -5 13 12 19 12 38 1 31 -6 -4 -5 2 1 15 9 16 9
21 -1 21 -9 0 -9 3 2 10 11 7 11 10 2 10 -8 0 -10 5 -5 13 10 17 11 67 0 74
-4 2 -3 11 4 19 9 11 8 14 -2 14 -11 0 -11 2 1 10 11 7 11 10 2 10 -8 0 -10 5
-5 13 12 19 12 38 1 31 -6 -4 -5 2 1 15 9 16 9 21 -1 21 -9 0 -9 3 2 10 11 7
11 10 2 10 -8 0 -10 5 -5 13 10 17 11 67 0 74 -4 2 -3 11 4 19 9 11 8 14 -2
14 -11 0 -11 2 1 10 11 7 11 10 2 10 -8 0 -10 5 -5 13 12 19 12 38 1 31 -6 -4
-5 2 1 15 9 16 9 21 -1 21 -9 0 -9 3 2 10 11 7 11 10 2 10 -8 0 -10 5 -5 13
10 17 11 67 0 74 -4 2 -3 11 4 19 9 11 8 14 -2 14 -11 0 -11 2 1 10 11 7 11
10 2 10 -8 0 -10 5 -5 13 12 19 12 38 1 31 -6 -4 -5 2 1 15 9 16 9 21 -1 21
-9 0 -9 3 2 10 11 7 11 10 2 10 -8 0 -10 5 -5 13 10 17 11 67 0 74 -4 2 -3 11
4 19 9 11 8 14 -2 14 -11 0 -11 2 1 10 11 7 11 10 2 10 -8 0 -10 5 -5 13 12
19 12 38 1 31 -6 -4 -5 2 1 15 9 16 9 21 -1 21 -9 0 -9 3 2 10 11 7 11 10 2
10 -8 0 -10 5 -5 13 10 17 11 67 0 74 -4 2 -3 11 4 19 9 11 8 14 -2 14 -11 0
-11 2 1 10 11 7 11 10 2 10 -8 0 -10 5 -5 13 12 19 12 38 1 31 -6 -4 -5 2 1
15 9 16 9 21 -1 21 -9 0 -9 3 2 10 11 7 11 10 2 10 -8 0 -10 5 -5 13 10 17 11
67 0 74 -4 2 -3 11 4 19 9 11 8 14 -2 14 -11 0 -11 2 1 10 11 7 11 10 2 10 -8
0 -10 5 -5 13 12 19 12 38 1 31 -6 -4 -5 2 1 15 9 16 9 21 -1 21 -9 0 -9 3 2
10 11 7 11 10 2 10 -8 0 -10 5 -5 13 10 17 11 67 0 74 -4 2 -3 11 4 19 9 11 8
14 -2 14 -11 0 -11 2 1 10 11 7 11 10 2 10 -8 0 -10 5 -5 13 12 19 12 38 1 31
-6 -4 -5 2 1 15 9 16 9 21 -1 21 -9 0 -9 3 2 10 11 7 11 10 2 10 -8 0 -10 5
-5 13 10 17 11 67 0 74 -4 2 -3 11 4 19 9 11 8 14 -2 14 -11 0 -11 2 1 10 11
7 11 10 2 10 -8 0 -10 5 -5 13 12 19 12 38 1 31 -6 -4 -5 2 1 15 9 16 9 21 -1
21 -9 0 -9 3 2 10 11 7 11 10 2 10 -8 0 -10 5 -5 13 10 17 11 67 0 74 -4 2 -3
11 4 19 9 11 8 14 -2 14 -11 0 -11 2 1 10 11 7 11 10 2 10 -8 0 -10 5 -5 13
12 19 12 38 1 31 -6 -4 -5 2 1 15 9 16 9 21 -1 21 -9 0 -9 3 2 10 11 7 11 10
2 10 -8 0 -10 5 -5 13 11 16 11 29 1 49 -5 10 -4 20 3 24 8 4 7 9 -2 15 -11 7
-11 9 1 9 13 0 13 1 0 10 -12 8 -13 11 -1 19 9 6 10 11 2 15 -6 4 -11 13 -11
19 0 7 4 6 10 -3 8 -12 10 -11 7 5 -1 11 -6 26 -10 33 -5 7 -3 12 3 12 7 0 8
5 3 13 -13 19 -12 557 1 557 8 0 8 2 0 8 -15 10 -15 952 0 952 8 0 8 2 0 8
-15 10 -15 944 0 954 8 5 8 8 0 8 -14 0 -15 470 0 470 8 0 8 3 0 8 -7 4 -11
52 -11 127 -1 66 -1 130 -2 143 -1 22 -15 30 -25 13z"/>
<path d="M5393 28237 c-13 -16 -12 -13116 1 -13136 6 -10 6 -12 -2 -7 -11 7
-9 -24 3 -43 3 -5 1 -13 -5 -16 -7 -5 -8 -11 -1 -19 6 -7 6 -18 1 -25 -11 -18
-1 -43 14 -34 6 3 4 -2 -5 -13 -15 -18 -19 -78 -5 -91 3 -4 0 -13 -7 -21 -8
-10 -8 -13 -1 -9 7 4 14 0 17 -8 4 -8 1 -12 -6 -9 -13 5 -17 -79 -5 -92 4 -3
3 -15 -3 -25 -6 -13 -6 -19 1 -19 5 0 10 -5 10 -11 0 -5 -4 -8 -8 -5 -10 6 -9
-65 1 -81 4 -7 3 -15 -3 -18 -7 -5 -8 -11 -1 -19 6 -7 6 -18 1 -25 -11 -18 -1
-43 14 -34 6 3 4 -2 -5 -13 -16 -18 -18 -71 -5 -93 4 -5 2 -12 -4 -16 -5 -3
-10 -12 -10 -18 0 -7 4 -6 10 3 8 12 10 10 10 -8 0 -14 -4 -21 -11 -16 -8 5
-8 1 0 -13 7 -14 7 -24 -2 -33 -8 -9 -8 -11 -1 -7 7 4 14 0 17 -8 4 -8 1 -12
-6 -9 -8 3 -12 -10 -12 -40 -1 -35 2 -43 15 -39 11 3 10 1 -3 -10 -12 -10 -15
-17 -7 -22 8 -5 8 -10 0 -20 -8 -10 -8 -15 1 -21 8 -5 9 -3 4 6 -6 9 -4 11 4
6 9 -6 8 -13 -6 -29 -10 -11 -12 -17 -5 -13 6 4 12 2 12 -3 0 -6 -4 -11 -10
-11 -5 0 -10 -5 -10 -11 0 -5 4 -8 8 -5 10 6 9 -24 -1 -40 -7 -11 -3 -47 8
-63 3 -5 1 -13 -5 -16 -7 -5 -8 -11 -1 -19 6 -7 6 -18 1 -25 -11 -18 -1 -43
14 -34 6 3 4 -2 -5 -13 -16 -18 -18 -71 -5 -93 4 -5 2 -12 -4 -16 -5 -3 -10
-12 -10 -18 0 -7 4 -6 10 3 8 12 10 10 10 -8 0 -14 -4 -21 -11 -16 -8 5 -8 1
0 -13 7 -14 7 -24 -2 -33 -8 -9 -8 -11 -1 -7 7 4 14 0 17 -8 4 -8 1 -12 -6 -9
-8 3 -12 -10 -12 -40 -1 -35 2 -43 15 -39 11 3 10 1 -3 -10 -12 -10 -15 -17
-7 -22 8 -5 8 -10 0 -20 -8 -10 -8 -15 1 -21 8 -5 9 -3 4 6 -6 9 -4 11 4 6 9
-6 8 -13 -6 -29 -10 -11 -12 -17 -5 -13 6 4 12 2 12 -3 0 -6 -4 -11 -10 -11
-5 0 -10 -5 -10 -11 0 -5 4 -8 8 -5 10 6 9 -24 -1 -40 -7 -11 -3 -47 8 -63 3
-5 1 -13 -5 -16 -7 -5 -8 -11 -1 -19 6 -7 6 -18 1 -25 -11 -18 -1 -43 14 -34
6 3 4 -2 -5 -13 -16 -18 -18 -71 -5 -93 4 -5 2 -12 -4 -16 -5 -3 -10 -12 -10
-18 0 -7 4 -6 10 3 8 12 10 10 10 -8 0 -14 -4 -21 -11 -16 -8 5 -8 1 0 -13 7
-14 7 -24 -2 -33 -8 -9 -8 -11 -1 -7 7 4 14 0 17 -8 4 -8 1 -12 -6 -9 -8 3
-12 -10 -12 -40 -1 -35 2 -43 15 -39 11 3 10 1 -3 -10 -12 -10 -15 -17 -7 -22
8 -5 8 -10 0 -20 -8 -10 -8 -15 1 -21 8 -5 9 -3 4 6 -6 9 -4 11 4 6 9 -6 8
-13 -6 -29 -10 -11 -12 -17 -5 -13 6 4 12 2 12 -3 0 -6 -4 -11 -10 -11 -5 0
-10 -5 -10 -11 0 -5 4 -8 8 -5 11 6 9 -25 -3 -43 -5 -10 -4 -12 3 -7 7 4 12 3
12 -3 0 -5 -5 -11 -12 -13 -7 -3 -6 -12 6 -30 10 -15 13 -29 7 -32 -10 -7 -10
-24 2 -43 5 -7 4 -13 -1 -13 -5 0 -9 -7 -9 -15 0 -8 4 -15 9 -15 5 0 4 -9 -2
-20 -8 -14 -8 -20 0 -20 7 0 8 -6 2 -17 -5 -10 -6 -27 -3 -37 4 -11 4 -39 1
-63 -4 -24 -3 -43 2 -43 5 0 6 -5 3 -10 -9 -15 -12 -120 -3 -120 4 0 8 -5 8
-11 0 -5 -4 -8 -8 -5 -9 6 -9 -50 0 -60 4 -4 3 -15 -3 -25 -7 -14 -6 -19 2
-19 9 0 9 -3 0 -14 -8 -10 -9 -16 -1 -21 7 -4 7 -12 0 -25 -7 -13 -6 -20 3
-23 9 -3 9 -7 0 -18 -14 -17 -14 -30 -1 -46 6 -8 7 -13 1 -13 -5 0 -10 -7 -10
-15 0 -8 4 -15 9 -15 5 0 4 -9 -2 -20 -8 -14 -8 -20 0 -20 7 0 8 -6 2 -17 -5
-10 -6 -27 -3 -37 4 -11 4 -39 1 -63 -4 -24 -3 -43 2 -43 5 0 6 -5 3 -10 -9
-15 -12 -120 -3 -120 4 0 8 -5 8 -11 0 -5 -4 -8 -8 -5 -9 6 -9 -50 0 -60 4 -4
3 -15 -3 -25 -7 -13 -6 -19 1 -19 7 0 8 -7 3 -17 -8 -16 -9 -39 -3 -53 7 -19
7 -41 -1 -45 -4 -3 -4 -17 1 -31 13 -33 12 -37 -2 -28 -7 5 -8 3 -3 -5 10 -18
13 -101 2 -101 -4 0 -5 -6 -1 -12 9 -15 12 -44 17 -198 3 -63 8 -124 12 -134
6 -14 5 -17 -4 -11 -10 6 -11 3 -3 -11 5 -11 9 -39 10 -64 0 -49 9 -108 19
-123 3 -6 1 -7 -5 -3 -9 5 -10 1 -3 -16 4 -13 7 -31 6 -40 -2 -10 0 -18 3 -18
4 0 8 -24 9 -53 2 -28 5 -70 8 -92 3 -22 6 -50 7 -62 1 -13 4 -23 8 -23 3 0 6
-12 7 -27 3 -46 10 -108 12 -108 4 0 10 -37 13 -72 2 -18 5 -33 8 -33 3 0 7
-10 8 -23 2 -25 9 -61 12 -64 2 -2 3 -11 5 -20 1 -10 5 -26 9 -35 5 -10 5 -25
2 -34 -3 -8 -2 -13 3 -10 5 3 11 -9 14 -27 3 -17 8 -43 12 -57 3 -14 7 -31 7
-37 1 -7 5 -13 9 -13 5 0 6 -6 3 -14 -3 -8 -1 -17 5 -20 6 -4 8 -13 4 -21 -3
-9 0 -22 7 -30 7 -8 10 -21 7 -30 -4 -8 -2 -17 4 -21 6 -3 8 -12 5 -19 -3 -8
0 -15 5 -17 6 -2 12 -15 14 -28 2 -14 6 -36 10 -50 4 -14 8 -32 9 -42 1 -9 7
-23 14 -31 7 -7 10 -16 7 -19 -3 -3 2 -24 10 -48 8 -23 12 -46 9 -51 -3 -5 0
-9 5 -9 6 0 11 -8 11 -19 0 -10 7 -35 15 -55 8 -20 12 -36 9 -36 -4 0 -2 -6 3
-13 6 -6 16 -36 23 -65 6 -28 15 -52 19 -52 4 0 8 -12 9 -26 1 -14 5 -31 9
-37 4 -7 8 -18 9 -27 2 -25 9 -45 16 -50 3 -3 8 -19 10 -35 2 -17 6 -32 9 -35
9 -8 49 -126 49 -144 0 -9 5 -16 10 -16 6 0 10 -8 10 -17 0 -24 23 -87 35 -95
5 -4 7 -8 3 -8 -4 0 1 -20 12 -45 11 -25 16 -45 13 -45 -4 0 -2 -5 5 -12 7 -7
12 -20 12 -30 0 -10 4 -18 8 -18 5 0 9 -6 9 -14 0 -13 31 -97 59 -163 8 -17
14 -36 14 -42 0 -6 4 -11 10 -11 5 0 7 -7 4 -15 -4 -8 -1 -15 6 -15 7 0 10 -7
6 -15 -3 -8 -1 -15 4 -15 6 0 9 -3 8 -7 -1 -5 5 -24 14 -43 8 -19 20 -52 27
-72 7 -21 16 -38 20 -38 4 0 8 -6 8 -12 0 -7 9 -33 21 -58 11 -25 26 -62 33
-82 7 -21 17 -38 22 -38 5 0 7 -7 3 -15 -3 -8 -2 -15 2 -15 9 0 48 -89 44
-102 -1 -5 2 -7 8 -3 5 3 10 -2 10 -12 0 -10 7 -28 15 -39 8 -12 11 -24 8 -28
-3 -3 -1 -6 6 -6 8 0 11 -7 7 -15 -3 -8 -2 -15 3 -15 7 0 61 -108 61 -123 0
-4 8 -16 17 -26 9 -11 18 -30 20 -43 2 -13 8 -25 13 -26 6 -2 10 -12 10 -22 0
-10 4 -20 9 -22 5 -1 11 -10 13 -18 2 -8 5 -17 9 -20 13 -12 57 -108 52 -114
-4 -3 -1 -6 6 -6 7 0 17 -13 22 -30 6 -16 15 -30 21 -30 5 0 7 -4 3 -9 -3 -5
2 -16 10 -24 8 -9 15 -22 15 -29 0 -8 4 -18 9 -23 5 -6 24 -37 42 -70 18 -33
35 -62 39 -65 3 -3 12 -20 19 -37 8 -18 17 -33 22 -33 5 0 9 -6 9 -14 0 -7 10
-26 22 -42 13 -16 16 -25 8 -20 -8 4 -6 -1 5 -11 11 -10 21 -25 23 -32 2 -8
12 -25 23 -39 10 -14 19 -29 19 -34 0 -5 9 -18 20 -30 11 -12 20 -28 20 -35 0
-7 4 -13 8 -13 5 0 17 -18 27 -40 10 -22 22 -40 26 -40 5 0 11 -11 15 -25 3
-14 10 -25 15 -25 5 0 9 -7 9 -15 0 -8 5 -15 10 -15 6 0 10 -7 10 -15 0 -8 4
-15 8 -15 5 0 16 -16 25 -35 9 -19 22 -35 27 -35 6 0 9 -4 6 -8 -3 -5 6 -20
19 -34 13 -14 22 -28 19 -30 -2 -3 5 -13 16 -23 11 -10 20 -24 20 -32 0 -7 5
-13 11 -13 5 0 7 -4 4 -10 -3 -5 1 -10 9 -10 9 0 16 -7 16 -15 0 -16 12 -34
43 -63 9 -9 17 -22 17 -29 0 -7 5 -13 10 -13 6 0 10 -6 10 -12 0 -7 14 -28 31
-45 16 -18 26 -33 22 -33 -4 0 0 -5 10 -11 9 -5 17 -17 17 -24 0 -8 5 -15 12
-15 6 0 9 -2 6 -5 -3 -3 3 -16 13 -28 21 -25 73 -90 109 -137 14 -18 33 -41
43 -51 9 -11 17 -23 17 -29 0 -5 5 -10 10 -10 6 0 10 -4 10 -10 0 -5 8 -18 17
-28 39 -41 83 -94 83 -101 0 -4 10 -17 23 -28 12 -11 36 -38 54 -59 18 -21 43
-52 57 -68 14 -16 26 -33 26 -38 0 -5 4 -6 10 -3 6 3 10 0 10 -7 0 -8 9 -20
20 -28 11 -8 20 -20 20 -27 0 -6 9 -15 21 -18 11 -4 18 -9 15 -12 -3 -3 21
-32 53 -64 32 -32 61 -65 65 -74 3 -9 10 -13 16 -10 5 3 10 0 10 -7 0 -7 15
-27 33 -44 17 -17 39 -39 49 -50 9 -10 59 -61 112 -113 53 -52 96 -98 96 -103
0 -4 4 -8 9 -8 6 0 39 -30 75 -66 36 -37 66 -64 66 -61 0 3 26 -20 59 -51 105
-102 191 -178 196 -173 3 2 5 -2 5 -9 0 -7 2 -11 5 -8 3 3 25 -13 49 -36 49
-46 118 -106 122 -106 3 0 48 -38 75 -62 10 -10 19 -16 19 -13 0 5 45 -32 82
-67 10 -10 18 -15 18 -10 0 4 4 2 8 -3 7 -10 78 -67 137 -109 14 -11 36 -28
47 -38 11 -9 28 -20 38 -23 10 -3 21 -12 24 -20 3 -8 10 -15 16 -15 6 0 16 -5
23 -10 49 -42 61 -49 71 -43 6 3 8 3 4 -2 -6 -7 63 -65 77 -65 3 0 11 -5 18
-10 47 -39 136 -98 141 -93 3 4 6 1 6 -5 0 -6 9 -14 20 -17 11 -4 32 -17 47
-31 14 -13 30 -24 35 -24 5 0 24 -11 42 -25 18 -14 38 -25 44 -25 7 0 12 -3
12 -7 0 -5 23 -21 50 -36 28 -16 50 -32 50 -37 0 -5 7 -7 15 -4 8 4 15 1 15
-5 0 -6 7 -11 15 -11 8 0 15 -5 15 -11 0 -5 4 -7 10 -4 5 3 10 2 10 -3 0 -6
14 -15 30 -21 17 -5 30 -15 30 -20 0 -6 8 -11 19 -11 10 0 24 -7 31 -15 7 -8
19 -15 26 -15 8 0 14 -3 14 -8 0 -4 15 -13 33 -21 17 -8 34 -17 37 -20 3 -3
21 -14 40 -25 19 -10 55 -29 79 -42 24 -13 51 -30 59 -36 13 -11 14 -11 8 0
-7 11 -4 11 12 1 12 -7 18 -17 15 -23 -4 -5 1 -7 10 -3 10 4 20 0 25 -9 5 -9
12 -16 15 -15 16 1 67 -22 67 -30 0 -5 7 -9 15 -9 9 0 27 -7 40 -16 14 -9 25
-13 25 -10 0 4 10 -2 22 -14 12 -11 25 -21 30 -21 16 -3 24 -6 63 -25 22 -10
41 -22 43 -26 2 -5 15 -8 28 -8 14 0 22 -4 19 -10 -3 -6 4 -10 15 -10 12 0 33
-9 47 -20 14 -11 34 -20 44 -20 9 0 19 -5 21 -11 2 -5 10 -11 18 -13 8 -1 36
-12 62 -24 26 -12 52 -22 57 -22 6 0 11 -5 11 -11 0 -5 5 -7 10 -4 6 3 10 1
10 -4 0 -6 7 -11 16 -11 8 0 25 -5 37 -12 12 -7 28 -13 36 -14 8 -2 17 -6 20
-11 3 -4 15 -10 26 -12 11 -1 29 -8 40 -14 11 -6 23 -10 28 -9 4 1 7 -3 7 -9
0 -5 5 -7 10 -4 6 3 10 1 10 -6 0 -7 3 -10 6 -6 4 3 19 0 35 -9 16 -8 29 -12
29 -9 0 4 7 -1 16 -9 8 -9 20 -14 25 -11 5 4 9 1 9 -4 0 -6 3 -10 8 -9 13 4
112 -36 112 -45 0 -4 4 -6 8 -3 5 3 20 -1 35 -9 15 -8 27 -11 27 -8 0 3 11 -2
25 -11 14 -9 25 -14 25 -10 0 4 7 1 15 -6 8 -7 15 -10 15 -6 0 4 14 0 30 -9
17 -9 30 -12 30 -8 0 5 4 2 8 -4 4 -7 17 -14 27 -16 27 -5 55 -16 87 -33 15
-8 30 -15 33 -15 21 1 65 -13 65 -21 0 -5 5 -6 10 -3 6 4 17 1 25 -5 8 -7 15
-9 15 -5 0 4 6 3 13 -2 13 -11 67 -27 80 -25 4 1 7 -3 7 -10 0 -6 2 -9 5 -6 4
3 42 -7 87 -23 44 -16 84 -27 88 -24 5 3 11 1 15 -5 4 -6 11 -8 16 -5 5 4 9 2
9 -3 0 -5 25 -14 55 -21 30 -7 55 -16 55 -21 0 -5 6 -7 14 -4 8 3 17 0 21 -5
3 -6 11 -9 16 -5 5 3 16 0 24 -6 8 -7 21 -10 30 -7 8 4 18 1 22 -6 5 -7 15
-13 23 -14 8 -1 25 -4 38 -7 12 -3 30 -8 40 -10 28 -6 105 -28 122 -34 8 -3
19 -4 24 -3 4 1 19 -5 32 -14 13 -8 24 -11 24 -5 0 6 8 6 23 0 25 -10 73 -22
100 -25 9 -2 20 -4 25 -5 4 -1 10 -2 15 -1 4 0 7 -2 7 -6 0 -5 10 -8 23 -9 12
0 36 -3 52 -7 17 -3 46 -9 65 -12 19 -4 46 -9 60 -12 14 -3 41 -7 60 -10 19
-2 42 -7 50 -10 8 -3 29 -7 45 -8 17 -1 40 -7 53 -14 15 -8 22 -8 22 -1 0 7 6
8 19 0 11 -5 38 -10 60 -10 23 0 41 -3 41 -7 0 -5 21 -9 48 -11 97 -5 112 -6
112 -12 0 -4 6 -7 13 -7 6 -1 33 -2 60 -4 26 -1 47 -5 47 -8 0 -3 17 -6 37 -7
21 -1 65 -5 98 -9 33 -4 72 -8 88 -9 15 0 27 -4 27 -7 0 -3 11 -4 25 -1 14 2
25 0 25 -4 0 -5 24 -10 53 -11 72 -3 141 -10 163 -16 19 -6 149 -20 192 -21
12 -1 22 -4 22 -7 0 -3 15 -5 33 -4 17 1 36 0 42 -3 5 -4 23 -7 40 -8 16 -1
53 -5 80 -9 28 -4 59 -8 70 -9 11 -1 25 -4 30 -7 6 -3 24 -5 40 -4 17 1 35 -1
40 -5 6 -4 30 -8 55 -9 24 -1 47 -7 51 -13 4 -7 9 -7 13 1 5 8 13 8 27 1 10
-6 19 -8 19 -4 0 3 6 1 14 -5 7 -6 24 -10 37 -8 l23 4 0 2447 c1 1346 -2 2454
-6 2464 -4 11 -7 12 -7 3 -1 -11 -4 -11 -16 -1 -8 7 -26 10 -40 8 -14 -3 -25
-2 -25 1 0 3 -26 5 -57 5 -32 -1 -66 3 -75 8 -12 6 -18 5 -18 -2 0 -6 -5 -8
-11 -5 -5 4 -34 9 -62 11 -142 12 -170 17 -179 29 -5 6 -8 6 -8 -1 0 -8 -11
-9 -38 -3 -50 11 -109 19 -157 22 -22 1 -42 4 -45 7 -6 7 -138 32 -165 31 -10
0 -25 5 -32 11 -7 6 -13 8 -13 5 0 -3 -19 0 -42 5 -24 5 -54 12 -68 15 -31 6
-41 9 -60 15 -22 7 -192 50 -210 52 -19 3 -60 15 -85 26 -16 6 -96 31 -115 35
-20 4 -117 39 -125 45 -5 4 -18 6 -27 5 -10 -2 -18 1 -18 7 0 6 -7 8 -15 4 -8
-3 -15 -1 -15 4 0 6 -6 10 -14 10 -7 0 -26 7 -42 14 -15 8 -31 13 -36 10 -4
-3 -15 2 -24 10 -9 9 -20 14 -25 11 -5 -4 -9 -1 -9 5 0 7 -7 10 -15 6 -8 -3
-15 -1 -15 4 0 6 -3 9 -7 8 -15 -3 -63 14 -63 23 0 5 -3 8 -7 7 -5 -2 -28 6
-53 16 -25 11 -48 19 -52 18 -5 -1 -8 3 -8 9 0 5 -5 7 -10 4 -6 -3 -10 -1 -10
4 0 6 -6 11 -13 11 -7 0 -31 9 -53 19 -21 11 -42 17 -45 15 -4 -2 -9 3 -13 11
-3 8 -14 15 -25 15 -11 0 -23 5 -26 10 -4 6 -10 8 -15 5 -4 -3 -10 1 -13 8 -3
7 -23 19 -46 26 -23 6 -41 16 -41 21 0 6 -7 10 -15 10 -17 0 -65 28 -77 45 -4
5 -8 6 -8 2 0 -5 -12 0 -27 11 -16 10 -43 25 -60 33 -18 8 -33 17 -33 21 0 5
-7 8 -15 8 -8 0 -15 5 -15 12 0 6 -3 9 -6 5 -4 -3 -21 4 -38 16 -42 30 -66 45
-96 59 -14 7 -27 15 -30 18 -12 14 -99 70 -109 70 -6 0 -11 4 -11 9 0 5 -8 12
-19 16 -10 3 -32 17 -47 31 -46 39 -53 44 -64 44 -5 0 -10 5 -10 10 0 6 -6 10
-13 10 -7 0 -20 8 -28 18 -9 9 -29 26 -44 37 -16 11 -34 26 -42 33 -7 7 -13
11 -13 7 0 -3 -10 4 -23 17 -13 13 -40 37 -62 53 -21 17 -48 39 -61 50 -57 51
-75 65 -85 65 -5 0 -8 3 -6 8 3 4 -12 20 -34 36 -21 17 -39 34 -39 39 0 4 -4
5 -10 2 -5 -3 -10 -1 -10 5 0 11 -24 40 -33 40 -7 0 -154 150 -257 260 -47 51
-91 98 -97 105 -7 8 -13 19 -13 25 0 6 -4 8 -10 5 -5 -3 -10 -1 -10 4 0 6 -8
19 -17 30 -41 43 -83 92 -83 96 0 5 -26 37 -48 61 -7 8 -11 14 -8 14 3 0 -5
11 -17 24 -32 35 -43 50 -44 60 -1 5 -5 12 -10 15 -5 3 -20 22 -33 41 -13 19
-27 37 -30 40 -3 3 -16 22 -29 43 -12 20 -27 37 -32 37 -6 0 -8 4 -5 9 3 5 -1
14 -9 21 -8 7 -15 19 -15 26 0 8 -4 14 -10 14 -5 0 -10 6 -10 14 0 8 -3 16 -7
18 -10 4 -73 107 -73 119 0 5 -4 9 -8 9 -5 0 -19 23 -32 50 -13 28 -26 50 -29
50 -3 0 -15 19 -25 43 -11 23 -27 51 -35 61 -14 17 -14 18 -1 12 11 -6 11 -4
-1 6 -9 7 -19 23 -23 36 -4 12 -12 22 -18 22 -6 0 -8 3 -5 7 4 3 2 12 -4 20
-6 7 -9 13 -5 13 3 0 -3 15 -14 32 -11 18 -23 41 -26 51 -4 9 -10 17 -13 17
-4 0 -8 6 -8 13 0 6 -10 35 -23 62 -13 28 -23 53 -22 58 1 4 -3 7 -8 7 -5 0
-9 3 -8 8 1 4 -7 27 -18 52 -10 25 -18 48 -16 53 1 4 -3 7 -8 7 -6 0 -10 9
-10 19 0 11 -6 26 -13 33 -8 7 -13 21 -11 31 1 9 -2 17 -8 17 -6 0 -8 7 -4 15
3 8 2 15 -3 15 -5 0 -12 12 -16 28 -21 74 -40 122 -47 122 -4 0 -5 6 -2 14 3
8 0 17 -5 21 -6 3 -9 11 -6 16 4 5 2 9 -4 9 -5 0 -8 9 -6 20 2 11 0 22 -5 25
-4 3 -11 23 -15 45 -4 22 -13 47 -22 55 -9 10 -10 15 -2 15 8 0 8 4 2 13 -9
10 -15 29 -30 87 -2 8 -5 25 -6 37 -1 11 -6 19 -11 16 -5 -3 -6 0 -4 8 3 8 1
22 -3 31 -5 9 -12 34 -15 55 -3 21 -7 43 -8 48 -1 6 -5 16 -9 23 -5 6 -5 17
-2 22 3 5 1 10 -5 10 -6 0 -8 4 -5 10 3 5 0 31 -8 57 -8 27 -13 58 -12 71 1
12 -2 22 -8 22 -5 0 -7 6 -4 13 2 6 0 26 -5 42 -4 17 -11 50 -14 75 -3 25 -8
54 -10 65 -6 29 -13 74 -19 130 -3 28 -9 73 -12 100 -3 28 -6 62 -6 78 1 15
-2 27 -6 27 -3 0 -7 28 -8 63 -2 105 -11 215 -17 226 -4 5 -2 12 4 16 7 4 7
12 0 26 -8 13 -7 19 0 19 6 0 8 5 5 10 -9 15 -10 104 -1 118 4 6 3 20 -3 29
-12 23 -12 35 1 51 7 8 7 12 -1 12 -7 0 -8 8 -1 25 5 14 6 25 1 25 -7 0 -7 45
-1 60 1 3 1 10 0 15 -5 23 -2 133 4 143 6 10 2 23 -16 53 -1 3 3 13 11 22 7
10 10 17 5 17 -10 0 -10 87 -1 97 4 3 2 14 -4 24 -6 11 -6 19 0 19 5 0 6 14 1
35 -4 20 -4 38 1 41 5 3 5 13 -1 25 -6 11 -7 19 -1 19 5 0 6 14 1 35 -4 20 -4
38 1 41 5 3 5 13 -1 25 -6 11 -7 19 -1 19 5 0 6 14 1 35 -4 20 -4 38 1 41 5 3
5 13 -1 25 -6 11 -7 19 -1 19 5 0 6 14 1 35 -4 20 -4 38 1 41 5 3 5 13 -1 25
-6 11 -7 19 -1 19 5 0 6 14 1 35 -4 20 -4 38 1 41 5 3 5 13 -1 25 -6 11 -7 19
-1 19 5 0 6 14 1 35 -4 20 -4 38 1 41 5 3 5 13 -1 25 -6 11 -7 19 -1 19 5 0 6
14 1 35 -4 20 -4 38 1 41 5 3 5 13 -1 25 -6 11 -7 19 -1 19 5 0 6 14 1 35 -4
20 -4 38 1 41 5 3 5 13 -1 25 -6 11 -7 19 -1 19 5 0 6 14 1 35 -4 20 -4 38 1
41 5 3 5 13 -1 25 -6 11 -7 19 -1 19 5 0 6 14 1 35 -4 20 -4 38 1 41 5 3 5 13
-1 25 -6 11 -7 19 -1 19 5 0 6 14 1 35 -4 20 -4 38 1 41 5 3 5 13 -1 25 -6 11
-7 19 -1 19 5 0 6 14 1 35 -4 20 -4 38 1 41 5 3 5 13 -1 25 -6 11 -7 19 -1 19
5 0 6 14 1 35 -4 20 -4 38 1 41 5 3 5 13 -1 25 -6 11 -7 19 -1 19 5 0 6 14 1
35 -4 20 -4 38 1 41 5 3 5 13 -1 25 -6 11 -7 19 -1 19 5 0 6 14 1 35 -4 20 -4
38 1 41 5 3 5 13 -1 25 -6 11 -7 19 -1 19 5 0 6 14 1 35 -4 20 -4 38 1 41 5 3
5 13 -1 25 -6 11 -7 19 -1 19 5 0 6 14 1 35 -4 20 -4 38 1 41 5 3 5 13 -1 25
-6 11 -7 19 -1 19 5 0 6 14 1 35 -4 20 -4 38 1 41 5 3 5 13 -1 25 -6 11 -7 19
-1 19 5 0 6 14 1 35 -4 20 -4 38 1 41 5 3 5 13 -1 25 -6 11 -7 19 -1 19 5 0 6
14 1 35 -4 20 -4 38 1 41 5 3 5 13 -1 25 -6 11 -7 19 -1 19 5 0 6 14 1 35 -4
20 -4 38 1 41 5 3 5 13 -1 25 -6 11 -7 19 -1 19 5 0 6 14 1 35 -4 20 -4 38 1
41 5 3 5 13 -1 25 -6 11 -7 19 -1 19 5 0 6 14 1 35 -4 20 -4 38 1 41 5 3 5 13
-1 25 -6 11 -7 19 -1 19 5 0 6 14 1 35 -4 20 -4 38 1 41 5 3 5 13 -1 25 -6 11
-7 19 -1 19 5 0 6 14 1 35 -4 20 -4 38 1 41 5 3 5 13 -1 25 -6 11 -7 19 -1 19
5 0 6 14 1 35 -4 20 -4 38 1 41 5 3 5 13 -1 25 -6 11 -7 19 -1 19 5 0 6 14 1
35 -4 20 -4 38 1 41 5 3 5 13 -1 25 -6 11 -7 19 -1 19 5 0 6 14 1 35 -4 20 -4
38 1 41 5 3 5 13 -1 25 -6 11 -7 19 -1 19 5 0 6 14 1 35 -4 20 -4 38 1 41 5 3
5 13 -1 25 -6 11 -7 19 -1 19 5 0 6 14 1 35 -4 20 -4 38 1 41 5 3 5 13 -1 25
-6 11 -7 19 -1 19 5 0 6 14 1 35 -4 20 -4 38 1 41 5 3 5 13 -1 25 -6 11 -7 19
-1 19 5 0 6 14 1 35 -4 20 -4 38 1 41 5 3 5 13 -1 25 -6 11 -7 19 -1 19 5 0 6
14 1 35 -4 20 -4 38 1 41 5 3 5 13 -1 25 -6 11 -7 19 -1 19 5 0 6 14 1 35 -4
20 -4 38 1 41 5 3 5 13 -1 25 -6 11 -7 19 -1 19 5 0 6 14 1 35 -4 20 -4 38 1
41 5 3 5 13 -1 25 -6 11 -7 19 -1 19 5 0 6 14 1 35 -4 20 -4 38 1 41 5 3 5 13
-1 25 -6 11 -7 19 -1 19 5 0 6 14 1 35 -4 20 -4 38 1 41 5 3 5 13 -1 25 -6 11
-7 19 -1 19 5 0 6 14 1 35 -4 20 -4 38 1 41 5 3 5 13 -1 25 -6 11 -7 19 -1 19
5 0 6 14 1 35 -5 21 -4 38 2 41 5 4 5 11 -1 18 -6 7 -8 16 -5 19 4 4 8 17 9
29 1 13 3 25 4 28 0 3 1174 4 2607 2 1741 -1 2603 1 2599 8 -3 5 -2 10 3 10
10 0 9 30 -2 48 -4 6 -3 12 2 12 5 0 9 7 9 15 0 8 -5 15 -10 15 -5 0 -4 6 2
14 9 11 9 16 0 21 -8 6 -7 10 2 16 10 6 10 9 2 9 -7 0 -10 6 -7 13 9 24 10 87
2 87 -5 0 -4 8 1 18 5 10 6 24 2 31 -5 7 -5 28 -1 47 5 20 4 34 -2 34 -5 0 -6
5 -3 11 12 18 12 68 1 73 -7 3 -8 7 -1 13 12 10 13 33 2 51 -5 6 -4 12 1 12 5
0 9 7 9 15 0 8 -5 15 -10 15 -5 0 -4 6 2 14 9 11 9 16 0 21 -8 6 -7 10 2 16
10 6 10 9 2 9 -7 0 -10 6 -7 13 9 24 10 87 2 87 -5 0 -4 8 1 18 5 10 6 24 2
31 -5 7 -5 28 -1 47 5 20 4 34 -2 34 -5 0 -6 5 -3 11 12 18 12 68 1 73 -7 3
-8 7 -1 13 12 10 13 33 2 51 -5 6 -4 12 1 12 5 0 9 7 9 15 0 8 -5 15 -10 15
-5 0 -4 6 2 14 9 11 9 16 0 21 -8 6 -7 10 2 16 10 6 10 9 2 9 -7 0 -10 6 -7
13 9 24 10 87 2 87 -5 0 -4 8 1 18 5 10 6 24 2 31 -5 7 -5 28 -1 47 5 20 4 34
-2 34 -5 0 -6 5 -3 11 12 18 12 68 1 73 -7 3 -8 7 -1 13 12 10 13 33 2 51 -5
6 -4 12 1 12 5 0 9 7 9 15 0 8 -5 15 -10 15 -5 0 -4 6 2 14 9 11 9 16 0 21 -8
6 -7 10 2 16 10 6 10 9 2 9 -7 0 -10 6 -7 13 9 24 10 87 2 87 -5 0 -4 8 1 18
5 10 6 24 2 31 -5 7 -5 28 -1 47 5 20 4 34 -2 34 -5 0 -6 5 -3 11 12 18 12 68
1 73 -7 3 -8 7 -1 13 12 10 13 33 2 51 -5 6 -4 12 1 12 5 0 9 7 9 15 0 8 -5
15 -10 15 -5 0 -4 6 2 14 9 11 9 16 0 21 -8 6 -7 10 2 16 10 6 10 9 2 9 -7 0
-10 6 -7 13 9 24 10 87 2 87 -5 0 -4 8 1 18 5 10 6 24 2 31 -5 7 -5 28 -1 47
5 20 4 34 -2 34 -5 0 -6 5 -3 11 12 18 12 68 1 73 -7 3 -8 7 -1 13 12 10 13
33 2 51 -5 6 -4 12 1 12 5 0 9 7 9 15 0 8 -4 15 -9 15 -5 0 -4 8 1 18 5 10 6
24 2 31 -5 7 -5 28 -1 47 5 20 4 34 -2 34 -5 0 -6 5 -3 11 12 18 12 68 1 73
-7 3 -8 7 -1 13 12 10 13 33 2 51 -5 6 -4 12 1 12 5 0 9 7 9 15 0 8 -5 15 -10
15 -5 0 -4 6 2 14 9 11 9 16 0 21 -8 6 -7 10 2 16 10 6 10 9 2 9 -7 0 -10 6
-7 13 9 24 10 87 2 87 -5 0 -4 8 1 18 5 10 6 24 2 31 -5 7 -5 28 -1 47 5 20 4
34 -2 34 -5 0 -6 5 -3 11 12 18 12 68 1 73 -7 3 -8 7 -1 13 12 10 13 33 2 51
-5 6 -4 12 1 12 5 0 9 7 9 15 0 8 -5 15 -10 15 -5 0 -4 6 2 14 9 11 9 16 0 21
-8 6 -7 10 2 16 10 6 10 9 2 9 -7 0 -10 6 -7 13 9 24 10 87 2 87 -5 0 -4 8 1
18 5 10 6 24 2 31 -5 7 -5 28 -1 47 5 20 4 34 -2 34 -5 0 -6 5 -3 11 12 18 12
68 1 73 -7 3 -8 7 -1 13 12 10 13 33 2 51 -5 6 -4 12 1 12 5 0 9 7 9 15 0 8
-5 15 -10 15 -5 0 -4 6 2 14 9 11 9 16 0 21 -8 6 -7 10 2 16 10 6 10 9 2 9 -7
0 -10 6 -7 13 9 24 10 87 2 87 -5 0 -4 8 1 18 5 10 6 24 2 31 -5 7 -5 28 -1
47 5 20 4 34 -2 34 -5 0 -6 5 -3 11 12 18 12 68 1 73 -7 3 -8 7 -1 13 12 10
13 33 2 51 -5 6 -4 12 1 12 5 0 9 7 9 15 0 8 -5 15 -10 15 -5 0 -4 6 2 14 9
11 9 16 0 21 -8 6 -7 10 2 16 10 6 10 9 2 9 -7 0 -10 6 -7 13 9 24 10 87 2 87
-5 0 -4 8 1 18 5 10 6 24 2 31 -5 7 -5 28 -1 47 5 20 4 34 -2 34 -5 0 -6 4 -3
10 11 17 14 50 5 50 -5 0 -5 13 0 30 6 21 5 28 -2 24 -6 -4 -8 -3 -5 3 11 18
16 63 6 63 -6 0 -7 4 -4 10 10 16 12 80 3 80 -5 0 -4 9 2 20 9 17 7 21 -12 28
-13 4 -1181 7 -2597 7 -2474 -1 -2573 -1 -2580 17 -3 10 -6 43 -5 73 0 30 -3
55 -8 55 -5 0 -4 8 1 19 6 10 7 22 3 26 -4 3 -8 30 -9 58 -2 29 -5 70 -7 92
-7 57 -16 161 -20 220 -2 28 -4 50 -6 50 -1 0 -4 20 -5 45 -4 58 -14 165 -15
165 -1 0 -3 18 -6 40 -2 22 -6 58 -9 80 -2 22 -7 63 -10 90 -9 86 -11 101 -18
112 -4 6 -2 15 4 19 8 5 8 8 0 13 -6 4 -12 33 -13 64 -2 31 -5 57 -9 57 -3 0
-5 18 -5 40 1 22 -1 40 -5 40 -3 0 -6 10 -5 23 1 12 -2 40 -7 62 -8 36 -14 75
-22 145 -2 14 -4 26 -5 28 -4 4 -6 14 -14 77 -4 32 -10 68 -13 80 -11 47 -15
72 -16 107 -1 21 -5 38 -8 38 -4 0 -9 17 -12 38 -5 32 -14 75 -21 107 -2 6 -6
33 -11 60 -4 28 -10 55 -13 60 -4 6 -8 19 -9 30 -5 38 -10 60 -21 100 -6 22
-14 58 -18 80 -3 22 -10 48 -15 58 -5 9 -7 17 -3 17 3 0 1 6 -5 13 -6 8 -8 17
-5 20 3 3 2 12 -2 19 -5 7 -9 18 -11 23 -8 39 -13 57 -21 89 -6 20 -8 36 -5
36 3 0 1 6 -5 13 -5 6 -13 28 -18 47 -11 49 -11 49 -14 55 -1 3 -4 10 -5 15
-1 6 -4 13 -5 18 -1 4 -2 10 -1 15 0 4 -3 7 -8 7 -5 0 -8 8 -7 18 2 9 -1 24
-5 32 -4 8 -22 60 -39 115 -17 55 -35 108 -41 118 -5 10 -7 22 -4 27 4 6 2 10
-4 10 -5 0 -13 15 -16 33 -4 17 -12 38 -17 45 -6 6 -7 12 -3 12 5 0 0 9 -10
20 -14 15 -15 20 -4 20 9 0 10 3 3 8 -9 6 -23 32 -29 55 -2 4 -4 10 -5 15 -1
4 -2 10 -1 15 0 4 -3 7 -8 7 -5 0 -12 16 -15 35 -4 19 -11 35 -16 35 -6 0 -9
3 -8 8 2 9 -10 40 -28 73 -7 14 -11 29 -7 33 3 3 2 6 -4 6 -5 0 -15 18 -22 40
-6 22 -16 40 -22 40 -6 0 -7 5 -4 10 3 6 1 10 -4 10 -6 0 -10 4 -8 8 3 10 -35
85 -48 94 -5 4 -6 8 -1 8 5 0 3 7 -4 15 -7 8 -9 15 -4 15 5 0 3 4 -5 9 -8 5
-16 16 -17 25 -1 9 -12 27 -23 42 -11 14 -18 30 -15 35 3 5 0 9 -5 9 -6 0 -11
7 -11 15 0 9 -6 18 -14 21 -8 3 -12 12 -9 20 3 8 0 14 -6 14 -6 0 -11 5 -11
11 0 6 -15 31 -32 57 -18 26 -33 50 -33 54 0 3 -10 18 -22 31 -12 14 -19 27
-17 30 2 2 -5 12 -16 22 -11 10 -20 24 -20 32 0 7 -4 13 -10 13 -5 0 -10 6
-10 13 0 8 -9 22 -20 32 -11 10 -18 20 -15 23 2 2 -6 13 -18 23 -12 10 -18 18
-13 19 5 0 -5 14 -23 30 -17 17 -31 34 -31 38 0 7 -28 42 -75 95 -14 15 -25
30 -25 33 0 3 -11 16 -25 30 -14 14 -25 29 -25 34 0 6 -6 10 -13 10 -8 0 -19
12 -25 26 -7 15 -17 22 -24 18 -6 -4 -8 -3 -5 3 8 13 -27 46 -37 36 -4 -5 -6
-3 -4 3 2 7 -41 55 -94 109 -54 53 -98 94 -98 91 0 -3 -10 5 -23 17 -62 58
-106 96 -149 127 -27 18 -48 37 -48 42 0 4 -5 8 -10 8 -11 0 -25 10 -61 43
-11 10 -24 15 -29 12 -6 -4 -10 1 -10 9 0 9 -6 16 -12 16 -7 1 -29 14 -48 30
-19 17 -38 30 -42 30 -7 0 -98 58 -108 69 -3 4 -12 7 -20 9 -8 2 -26 13 -39
25 -13 12 -21 16 -17 9 7 -11 4 -11 -13 0 -12 7 -21 16 -21 20 0 5 -9 8 -20 8
-11 0 -20 4 -20 9 0 8 -53 34 -65 32 -3 -1 -15 8 -27 18 -11 11 -25 18 -30 15
-4 -3 -8 0 -8 6 0 7 -7 10 -15 6 -9 -3 -15 0 -15 10 0 8 -4 13 -9 10 -4 -3
-37 10 -73 29 -36 18 -69 31 -72 28 -3 -4 -6 -1 -6 5 0 6 -13 13 -30 17 -16 4
-30 11 -30 17 0 6 -7 8 -15 4 -8 -3 -15 -1 -15 5 0 6 -7 9 -15 5 -8 -3 -15 -2
-15 3 0 5 -10 12 -22 16 -13 4 -25 8 -28 9 -47 16 -159 62 -169 70 -12 9 -13
8 -7 -3 6 -9 0 -8 -17 4 -14 9 -30 17 -34 17 -10 1 -23 4 -48 14 -11 4 -23 6
-27 6 -5 -1 -8 2 -8 8 0 5 -7 7 -15 4 -8 -4 -15 -2 -15 3 0 5 -9 10 -20 11
-42 4 -50 6 -50 12 0 4 -6 7 -12 8 -19 1 -50 9 -81 21 -15 6 -31 10 -35 9 -4
-1 -19 4 -35 10 -15 7 -38 14 -50 16 -24 4 -103 25 -127 34 -8 2 -22 6 -30 7
-8 1 -26 5 -40 9 -52 12 -116 27 -135 30 -11 2 -21 5 -22 6 -4 3 -10 5 -63 14
-53 10 -72 14 -102 22 -13 3 -34 7 -48 9 -14 1 -32 5 -41 9 -9 4 -20 6 -25 5
-5 -1 -11 0 -14 1 -19 7 -103 20 -147 23 -13 0 -23 4 -23 7 0 3 -14 7 -32 8
-33 3 -80 9 -133 18 -36 6 -84 13 -145 20 -25 3 -52 8 -60 10 -14 5 -75 12
-155 17 -16 1 -35 5 -41 9 -7 4 -16 2 -21 -5z"/>
</g>
</svg>
